<?xml version="1.0" encoding="UTF-8"?>
<svg version="1.1" xmlns="http://www.w3.org/2000/svg" width="50" height="48">
<path d="M0 0 C0.78375 0.04125 1.5675 0.0825 2.375 0.125 C2.00995936 5.78942374 1.3195679 10.13203705 -1.625 15.125 C-0.614375 14.465 0.39625 13.805 1.4375 13.125 C5.15562891 10.97000284 8.06415491 10.77309428 12.375 11.125 C13.1875 13.3125 13.1875 13.3125 13.375 16.125 C10.01645233 20.53309382 6.41401164 22.24772116 1.375 24.125 C2.00148437 24.46273438 2.62796875 24.80046875 3.2734375 25.1484375 C4.09070312 25.59445313 4.90796875 26.04046875 5.75 26.5 C6.56210937 26.94085937 7.37421875 27.38171875 8.2109375 27.8359375 C10.375 29.125 10.375 29.125 12.375 31.125 C12.5 33.75 12.5 33.75 12.375 36.125 C9.30305092 37.66097454 6.77255707 37.3515038 3.375 37.125 C-0.0625 35.625 -0.0625 35.625 -2.625 34.125 C-2.46 34.62 -2.295 35.115 -2.125 35.625 C-1.31858166 39.65709172 -0.75512784 44.38525568 -2.625 48.125 C-7.05457746 48.48415493 -7.05457746 48.48415493 -9.3125 47.0625 C-11.19613816 44.28189129 -11.8311186 41.3615934 -12.625 38.125 C-12.93953125 38.61871094 -13.2540625 39.11242188 -13.578125 39.62109375 C-14.00609375 40.26175781 -14.4340625 40.90242188 -14.875 41.5625 C-15.29265625 42.20058594 -15.7103125 42.83867188 -16.140625 43.49609375 C-17.92368104 45.45276314 -18.99924814 45.92019136 -21.625 46.125 C-23.625 44.125 -23.625 44.125 -23.70703125 42.20703125 C-23.08743347 36.98983832 -21.93650885 32.84851809 -19.625 28.125 C-20.181875 28.22039063 -20.73875 28.31578125 -21.3125 28.4140625 C-27.0139729 29.24231701 -31.12324076 28.82554377 -36.625 27.125 C-36.3125 24.75 -36.3125 24.75 -35.625 22.125 C-32.72407498 20.19104999 -31.72825263 19.82368059 -28.4375 19.5 C-27.179375 19.37625 -25.92125 19.2525 -24.625 19.125 C-25.06972656 18.74988281 -25.51445312 18.37476562 -25.97265625 17.98828125 C-27.68670453 16.43821937 -29.22420192 14.96543317 -30.625 13.125 C-30.5 10.25 -30.5 10.25 -29.625 8.125 C-28.3875 8.434375 -27.15 8.74375 -25.875 9.0625 C-25.17890625 9.23652344 -24.4828125 9.41054687 -23.765625 9.58984375 C-21.71875 10.1015625 -19.671875 10.61328125 -17.625 11.125 C-17.625 8.155 -17.625 5.185 -17.625 2.125 C-16.965 1.795 -16.305 1.465 -15.625 1.125 C-11.81199218 4.4120757 -10.39527754 7.52227838 -8.625 12.125 C-8.35945313 11.42632812 -8.09390625 10.72765625 -7.8203125 10.0078125 C-7.46710937 9.09773437 -7.11390625 8.18765625 -6.75 7.25 C-6.40195312 6.34507812 -6.05390625 5.44015625 -5.6953125 4.5078125 C-4.2590973 1.31039909 -3.59585309 0.1712311 0 0 Z " fill="#301844" transform="translate(36.625,-0.125)"/>
<path d="M0 0 C2.33944736 0.28730055 4.6739143 0.61936779 7 1 C7.12375 1.763125 7.2475 2.52625 7.375 3.3125 C9.67698296 7.11962566 12.27518552 7.19059026 16.4453125 8.2421875 C19.87611894 9.25988849 22.17287126 10.84245438 25 13 C24.67 13.99 24.34 14.98 24 16 C22.35 16 20.7 16 19 16 C18.67 16.66 18.34 17.32 18 18 C16.02 17.01 14.04 16.02 12 15 C12.2475 15.7425 12.2475 15.7425 12.5 16.5 C13.30641834 20.53209172 13.86987216 25.26025568 12 29 C7.57042254 29.35915493 7.57042254 29.35915493 5.3125 27.9375 C3.42886184 25.15689129 2.7938814 22.2365934 2 19 C1.68546875 19.49371094 1.3709375 19.98742187 1.046875 20.49609375 C0.61890625 21.13675781 0.1909375 21.77742188 -0.25 22.4375 C-0.66765625 23.07558594 -1.0853125 23.71367188 -1.515625 24.37109375 C-3.29868104 26.32776314 -4.37424814 26.79519136 -7 27 C-9 25 -9 25 -9.08203125 23.046875 C-8.49917454 18.0799222 -7.46993347 14.42529747 -5 10 C-4.7525 8.9790625 -4.7525 8.9790625 -4.5 7.9375 C-3.73267982 4.9641343 -2.18193045 2.18193045 0 0 Z " fill="#2E1643" transform="translate(22,19)"/>
<path d="M0 0 C1.98 0 3.96 0 6 0 C6.8125 2.1875 6.8125 2.1875 7 5 C3.64145233 9.40809382 0.03901164 11.12272116 -5 13 C-4.06027344 13.50660156 -4.06027344 13.50660156 -3.1015625 14.0234375 C-2.28429688 14.46945313 -1.46703125 14.91546875 -0.625 15.375 C0.59316406 16.03628906 0.59316406 16.03628906 1.8359375 16.7109375 C4 18 4 18 6 20 C6.125 22.625 6.125 22.625 6 25 C3.29120665 26.35439668 0.99066732 26.06501451 -2 26 C-2 25.34 -2 24.68 -2 24 C-0.35 23.67 1.3 23.34 3 23 C2.33999264 19.92748204 2.33999264 19.92748204 0.14453125 18.90234375 C-0.62503906 18.58394531 -1.39460938 18.26554687 -2.1875 17.9375 C-2.99445312 17.60105469 -3.80140625 17.26460937 -4.6328125 16.91796875 C-7.39381474 15.84728306 -10.16950931 14.87092021 -13 14 C-13 13.01 -13 12.02 -13 11 C-12.443125 10.90203125 -11.88625 10.8040625 -11.3125 10.703125 C-5.88179605 9.63900058 -0.56143206 8.26980207 4 5 C4.33 4.01 4.66 3.02 5 2 C3.02 2 1.04 2 -1 2 C-0.67 1.34 -0.34 0.68 0 0 Z " fill="#2C1542" transform="translate(43,11)"/>
<path d="M0 0 C3.625 0.375 3.625 0.375 7 1 C8.33157895 6.44736842 8.33157895 6.44736842 6.875 8.875 C4.40522151 10.3568671 2.83386167 10.3633156 0 10 C-2 8 -2 8 -2.25 5 C-2 2 -2 2 0 0 Z " fill="#F9CE3D" transform="translate(22,19)"/>
<path d="M0 0 C0.99 0 1.98 0 3 0 C3 2.97 3 5.94 3 9 C2.01 9 1.02 9 0 9 C-0.639375 9.969375 -1.27875 10.93875 -1.9375 11.9375 C-4 15 -4 15 -6.125 16 C-6.74375 16 -7.3625 16 -8 16 C-10 14 -10 14 -10.1171875 11.9765625 C-9.45716924 5.56799815 -9.45716924 5.56799815 -6.9375 2.4375 C-6.298125 1.963125 -5.65875 1.48875 -5 1 C-5.74250597 5.08378283 -6.82923301 9.01939223 -8 13 C-4.75608861 12.30860265 -4.75608861 12.30860265 -3.61328125 9.27734375 C-2.96939453 7.62412109 -2.96939453 7.62412109 -2.3125 5.9375 C-1.87550781 4.83277344 -1.43851563 3.72804687 -0.98828125 2.58984375 C-0.66214844 1.73519531 -0.33601563 0.88054688 0 0 Z " fill="#2D1642" transform="translate(23,30)"/>
<path d="M0 0 C6.63498399 0.35544557 10.63187218 2.13095043 16 6 C15.67 6.99 15.34 7.98 15 9 C8.83189657 8.78357532 5.81716686 7.62184578 1.25 3.47265625 C0 2 0 2 0 0 Z " fill="#F0A2D7" transform="translate(31,26)"/>
<path d="M0 0 C0.66 0 1.32 0 2 0 C2.67756882 1.55780332 3.34159457 3.12150096 4 4.6875 C4.37125 5.55761719 4.7425 6.42773438 5.125 7.32421875 C6.01870488 10.0572002 6.16449676 12.14700934 6 15 C4.68 15 3.36 15 2 15 C-0.41889075 10.06143138 -1.44999897 6.62498715 -1 1 C-0.67 0.67 -0.34 0.34 0 0 Z " fill="#EB9ED3" transform="translate(27,30)"/>
<path d="M0 0 C-0.203125 1.828125 -0.203125 1.828125 -1 4 C-3.109375 5.484375 -3.109375 5.484375 -5.75 6.75 C-7.04164062 7.39195313 -7.04164062 7.39195313 -8.359375 8.046875 C-11.10075251 9.03636629 -13.11154335 9.18702237 -16 9 C-12.14603474 3.45029002 -7.16629012 -0.86864123 0 0 Z " fill="#E99DD2" transform="translate(48,13)"/>
<path d="M0 0 C0.99 0 1.98 0 3 0 C2.23580786 9.01746725 2.23580786 9.01746725 -1 13 C-1.99 13 -2.98 13 -4 13 C-3.50269348 8.02693484 -2.44697666 4.36200187 0 0 Z " fill="#EC9FD4" transform="translate(19,30)"/>
<path d="M0 0 C0 0.66 0 1.32 0 2 C-3.00313748 3.50156874 -5.79067522 3.09281204 -9.125 3.0625 C-10.40632812 3.05347656 -11.68765625 3.04445313 -13.0078125 3.03515625 C-14.48894531 3.01775391 -14.48894531 3.01775391 -16 3 C-15.67 2.01 -15.34 1.02 -15 0 C-10.61563621 -2.19218189 -4.63098598 -1.15774649 0 0 Z " fill="#EA9DD3" transform="translate(18,23)"/>
<path d="M0 0 C5.7097955 0.41778991 8.60957142 2.57546571 13 6 C12.67 6.66 12.34 7.32 12 8 C6.73610189 7.68097587 3.55597551 4.60721435 0 1 C0 0.67 0 0.34 0 0 Z " fill="#F0A2D7" transform="translate(8,11)"/>
<path d="M0 0 C0.66 0 1.32 0 2 0 C1.52412884 6.02770138 -1.19722957 10.76678289 -4 16 C-4.33 16 -4.66 16 -5 16 C-4.70887831 9.58076669 -3.54784971 5.37899794 0 0 Z " fill="#E399CE" transform="translate(35,2)"/>
<path d="M0 0 C0.78375 0.04125 1.5675 0.0825 2.375 0.125 C2.045 3.095 1.715 6.065 1.375 9.125 C0.385 9.455 -0.605 9.785 -1.625 10.125 C-0.965 7.485 -0.305 4.845 0.375 2.125 C-2.49920123 4.84104715 -2.49920123 4.84104715 -4.625 8.125 C-5.285 8.125 -5.945 8.125 -6.625 8.125 C-4.21323529 0.20063025 -4.21323529 0.20063025 0 0 Z " fill="#2B1441" transform="translate(36.625,-0.125)"/>
<path d="M0 0 C0.33 0 0.66 0 1 0 C1.66 1.98 2.32 3.96 3 6 C5.31 6 7.62 6 10 6 C9.01 6.99 8.02 7.98 7 9 C6.01 8.67 5.02 8.34 4 8 C3.67 8.99 3.34 9.98 3 11 C3 10.01 3 9.02 3 8 C2.01 8 1.02 8 0 8 C-0.33 8.66 -0.66 9.32 -1 10 C-2.15837626 5.94568308 -1.83691257 3.78187881 0 0 Z M11 3 C11 6 11 6 11 6 Z " fill="#402643" transform="translate(19,22)"/>
<path d="M0 0 C2.82572058 1.03293147 3.82978305 1.67952982 5.265625 4.3828125 C5.59046875 5.28773438 5.9153125 6.19265625 6.25 7.125 C6.58515625 8.03507813 6.9203125 8.94515625 7.265625 9.8828125 C7.62914062 10.93082031 7.62914062 10.93082031 8 12 C7.01 12.33 6.02 12.66 5 13 C4.01 9.7 3.02 6.4 2 3 C1.01 3 0.02 3 -1 3 C-0.67 2.01 -0.34 1.02 0 0 Z " fill="#2A1441" transform="translate(20,1)"/>
<path d="M0 0 C0.99 0 1.98 0 3 0 C3 2.97 3 5.94 3 9 C2.34 8.67 1.68 8.34 1 8 C1 7.34 1 6.68 1 6 C0.34 6 -0.32 6 -1 6 C-0.67 4.02 -0.34 2.04 0 0 Z " fill="#25103C" transform="translate(23,30)"/>
<path d="M0 0 C2.7710688 2.34591852 3.52059284 4.14776201 4.1875 7.6875 C4.34605469 8.49574219 4.50460938 9.30398438 4.66796875 10.13671875 C4.77753906 10.75160156 4.88710938 11.36648437 5 12 C1.85378931 8.94860662 0.08010317 6.76226974 -0.125 2.25 C-0.063125 1.13625 -0.063125 1.13625 0 0 Z " fill="#DE95CA" transform="translate(21,5)"/>
<path d="M0 0 C2.35953094 2.35953094 2.49141413 3.77895617 3 7 C2.01 7 1.02 7 0 7 C-0.38133299 5.0085944 -0.71325582 3.00720923 -1 1 C-0.67 0.67 -0.34 0.34 0 0 Z " fill="#371D4B" transform="translate(26,38)"/>
</svg>
