<svg width="20" height="20" viewBox="0 0 20 20" fill="none" xmlns="http://www.w3.org/2000/svg">
<path d="M9.99935 1.6665C14.6018 1.6665 18.3327 5.39734 18.3327 9.99984C18.3327 14.6023 14.6018 18.3332 9.99935 18.3332C5.39685 18.3332 1.66602 14.6023 1.66602 9.99984C1.66602 5.39734 5.39685 1.6665 9.99935 1.6665ZM11.666 11.1665L10.3627 12.209C10.3169 12.2456 10.2794 12.2915 10.2526 12.3436C10.2258 12.3957 10.2102 12.4529 10.207 12.5114C10.2038 12.5699 10.213 12.6284 10.2339 12.6831C10.2548 12.7379 10.2871 12.7876 10.3285 12.829L11.361 13.8615C11.561 14.0617 11.7066 14.3095 11.7843 14.5815L11.9302 15.0923C11.9906 15.3067 12.0981 15.5048 12.2447 15.6725C12.3913 15.8401 12.5733 15.973 12.7777 16.0615C13.5748 15.6952 14.2921 15.1756 14.8885 14.5323L14.6935 12.9682C14.6594 12.696 14.5586 12.4365 14.4002 12.2127C14.2417 11.9888 14.0305 11.8075 13.7852 11.6848L12.5602 11.0715C12.4177 11.0002 12.2577 10.9712 12.0992 10.9881C11.9407 11.0049 11.7904 11.0668 11.666 11.1665ZM9.99935 3.33317C8.97939 3.3323 7.97288 3.56586 7.05752 4.0158C6.14217 4.46575 5.34248 5.12004 4.72018 5.92817L4.58268 6.11234V7.5165C4.58258 8.02526 4.73769 8.52193 5.02731 8.9402C5.31692 9.35847 5.72726 9.67843 6.20352 9.85734L6.35185 9.90734L7.42685 10.2365C8.57102 10.5865 9.68518 9.65567 9.57435 8.48984L9.55852 8.369L9.41268 7.49484C9.38045 7.3012 9.41762 7.1024 9.51763 6.93348C9.61764 6.76456 9.77407 6.63637 9.95935 6.5715L10.0493 6.5465L10.5593 6.42984C10.8487 6.3637 11.1219 6.24026 11.3628 6.06682C11.6037 5.89338 11.8074 5.67344 11.9619 5.41999C12.1163 5.16654 12.2185 4.88471 12.2623 4.59113C12.3061 4.29755 12.2906 3.99818 12.2168 3.71067C11.5045 3.45994 10.7546 3.33228 9.99935 3.33317Z" fill="#72717B"/>
</svg>
